{
    "asset" : {
        "generator" : "Khronos glTF Blender I/O v1.6.16",
        "version" : "2.0"
    },
    "scene" : 0,
    "scenes" : [
        {
            "name" : "Scene",
            "nodes" : [
                0
            ]
        }
    ],
    "nodes" : [
        {
            "mesh" : 0,
            "name" : "EXPORT_GOOGLE_SAT_WM",
            "scale" : [
                0.005092316772788763,
                0.005092316772788763,
                0.005092316772788763
            ]
        }
    ],
    "materials" : [
        {
            "doubleSided" : true,
            "name" : "rastMat",
            "pbrMetallicRoughness" : {
                "baseColorTexture" : {
                    "index" : 0
                },
                "metallicFactor" : 0,
                "roughnessFactor" : 0.5
            }
        }
    ],
    "meshes" : [
        {
            "name" : "EXPORT_GOOGLE_SAT_WM",
            "primitives" : [
                {
                    "attributes" : {
                        "POSITION" : 0,
                        "NORMAL" : 1,
                        "TEXCOORD_0" : 2,
                        "TEXCOORD_1" : 3
                    },
                    "indices" : 4,
                    "material" : 0
                }
            ]
        }
    ],
    "textures" : [
        {
            "sampler" : 0,
            "source" : 0
        }
    ],
    "images" : [
        {
            "mimeType" : "image/png",
            "name" : "EXPORT_GOOGLE_SAT_WM",
            "uri" : "EXPORT_GOOGLE_SAT_WM.png"
        }
    ],
    "accessors" : [
        {
            "bufferView" : 0,
            "componentType" : 5126,
            "count" : 4225,
            "max" : [
                73758.359375,
                4355.3837890625,
                39579.8125
            ],
            "min" : [
                -63216.8125,
                -10000,
                -38691.71875
            ],
            "type" : "VEC3"
        },
        {
            "bufferView" : 1,
            "componentType" : 5126,
            "count" : 4225,
            "type" : "VEC3"
        },
        {
            "bufferView" : 2,
            "componentType" : 5126,
            "count" : 4225,
            "type" : "VEC2"
        },
        {
            "bufferView" : 3,
            "componentType" : 5126,
            "count" : 4225,
            "type" : "VEC2"
        },
        {
            "bufferView" : 4,
            "componentType" : 5123,
            "count" : 24576,
            "type" : "SCALAR"
        }
    ],
    "bufferViews" : [
        {
            "buffer" : 0,
            "byteLength" : 50700,
            "byteOffset" : 0
        },
        {
            "buffer" : 0,
            "byteLength" : 50700,
            "byteOffset" : 50700
        },
        {
            "buffer" : 0,
            "byteLength" : 33800,
            "byteOffset" : 101400
        },
        {
            "buffer" : 0,
            "byteLength" : 33800,
            "byteOffset" : 135200
        },
        {
            "buffer" : 0,
            "byteLength" : 49152,
            "byteOffset" : 169000
        }
    ],
    "samplers" : [
        {
            "magFilter" : 9729,
            "minFilter" : 9987,
            "wrapS" : 33071,
            "wrapT" : 33071
        }
    ],
    "buffers" : [
        {
            "byteLength" : 218152,
            "uri" : "island.bin"
        }
    ]
}
